<?xml version="1.0" standalone="no"?>
<!DOCTYPE svg PUBLIC "-//W3C//DTD SVG 20010904//EN"
 "http://www.w3.org/TR/2001/REC-SVG-20010904/DTD/svg10.dtd">
<svg version="1.0" xmlns="http://www.w3.org/2000/svg"
 width="686.000000pt" height="980.000000pt" viewBox="0 0 686.000000 980.000000"
 preserveAspectRatio="xMidYMid meet">
<metadata>
Created by potrace 1.16, written by Peter Selinger 2001-2019
</metadata>
<g transform="translate(0.000000,980.000000) scale(0.100000,-0.100000)"
fill="#000000" stroke="none">
<path d="M2230 9789 c-29 -12 -67 -45 -83 -74 -8 -13 -14 -143 -18 -385 -5
-288 -10 -377 -23 -420 -17 -62 -80 -192 -186 -385 -147 -268 -184 -383 -183
-570 0 -101 4 -135 27 -210 58 -192 150 -376 420 -835 70 -118 146 -252 169
-297 l42 -83 1036 0 1035 0 21 43 c11 23 104 186 207 362 364 624 447 827 433
1070 -10 172 -51 281 -234 616 -107 196 -128 244 -143 329 -7 37 -15 210 -19
407 -6 326 -7 343 -27 370 -68 92 -152 95 -251 8 l-43 -37 0 -361 0 -362 -66
-135 c-182 -375 -402 -583 -699 -661 -105 -27 -297 -29 -403 -4 -178 42 -298
110 -438 249 -120 119 -177 202 -273 394 l-71 142 0 363 0 363 -42 41 c-71 68
-126 86 -188 62z"/>
<path d="M2329 6103 c-29 -54 -238 -422 -464 -818 -579 -1014 -774 -1369
-1024 -1875 -452 -910 -718 -1671 -810 -2315 -40 -282 -37 -451 10 -501 47
-50 234 -117 577 -209 586 -155 1491 -324 1897 -354 507 -38 1475 -38 1825 -1
501 53 1096 156 1605 280 362 87 697 186 802 236 103 49 108 62 106 239 -10
782 -442 1965 -1261 3450 -57 105 -297 528 -532 940 -235 413 -461 811 -502
885 l-74 135 -1051 3 -1052 2 -52 -97z"/>
</g>
</svg>
